<?xml version="1.0" standalone="no"?>
<!DOCTYPE svg PUBLIC "-//W3C//DTD SVG 20010904//EN"
 "http://www.w3.org/TR/2001/REC-SVG-20010904/DTD/svg10.dtd">
<svg version="1.0" xmlns="http://www.w3.org/2000/svg"
 width="35.000000pt" height="35.000000pt" viewBox="0 0 35.000000 35.000000"
 preserveAspectRatio="xMidYMid meet">

<g transform="translate(0.000000,35.000000) scale(0.100000,-0.100000)"
fill="#000000" stroke="none">
<path d="M0 175 l0 -175 175 0 175 0 0 175 0 175 -175 0 -175 0 0 -175z m194
79 c36 -36 3 -93 -59 -103 -35 -5 -41 -11 -54 -46 -18 -50 -19 -51 -33 -37 -9
9 -8 18 1 39 7 16 22 50 32 76 l19 48 -21 -3 c-12 -2 -24 3 -26 10 -11 30 113
44 141 16z m104 3 c8 -9 7 -29 -4 -72 -19 -72 -29 -92 -62 -128 -29 -31 -48
-34 -73 -11 -14 13 -16 21 -8 35 5 11 16 19 24 19 11 0 12 -6 5 -25 -7 -19 -6
-25 5 -25 33 0 85 114 85 187 0 35 10 42 28 20z"/>
<path d="M127 215 c-17 -35 -17 -35 7 -35 33 0 71 32 63 53 -12 31 -52 20 -70
-18z"/>
</g>
</svg>
